<svg id="daejeonsi_slogan" xmlns="http://www.w3.org/2000/svg" width="580" height="38.997" viewBox="0 0 580 38.997">
  <path id="Path_548" data-name="Path 548" d="M480.214,104.269c-.523,0-1.045,0-1.531-.037a5.463,5.463,0,0,1,1.122,3.7c0,3.81-2.988,6.275-8.331,6.275-5.864,0-8.815-2.391-8.815-6.275a5.121,5.121,0,0,1,1.233-3.7c-.523,0-1.083.037-1.606.037V97.957c1.9.037,3.773.112,5.566.112,0-.672-.037-1.307-.075-1.98h7.695a18.476,18.476,0,0,0-.111,2.017c1.605-.037,3.174-.075,4.855-.149Zm10.908,10.645a6.635,6.635,0,0,1,6.91,6.762c0,4.221-2.764,7.022-6.836,7.022h-20.47a6.892,6.892,0,1,1,.037-13.784Zm-17.37-8.068c0-1.083-.822-1.569-2.316-1.569s-2.241.486-2.241,1.569c0,1.158.747,1.681,2.353,1.681C472.968,108.527,473.752,108,473.752,106.846Zm16.137,15.764a.892.892,0,0,0,.934-.971.967.967,0,0,0-.934-1.009H472a.965.965,0,0,0-.934,1.009.907.907,0,0,0,.934.971Zm.6-8.667c.037-1.868.112-3.81.112-5.752h-2.316c0,1.942.037,3.847.112,5.752h-6.5c.187-5.976.187-12.364,0-17.331h6.5c-.075,1.643-.112,3.436-.112,5.3H490.6c0-1.868-.075-3.661-.112-5.3h6.537c-.149,4.968-.187,11.318,0,17.331Z" transform="translate(-462.285 -96.089)"/>
  <path id="Path_549" data-name="Path 549" d="M533.821,115.423c-6.5-.149-26.148-.112-32.5,0v-5.678c2.541.075,7.322.112,12.514.149V108.1c-4.258,0-8.217.037-10.5.075.074-3.511.074-8.031,0-11.542,6.611.111,21.029.111,28.761,0v5.043H511.073v1.494H532.1v5.005c-2.5-.037-6.2-.037-10.122-.075V109.9c4.931,0,9.451-.037,11.842-.149Zm-7.4,1.457c3.773,0,6.687,1.681,6.687,6.015,0,4.034-2.913,5.939-6.687,5.939h-17.63c-3.624,0-6.649-1.868-6.649-5.939,0-4.3,2.988-6.015,6.649-6.015Zm-1.718,6.724c.859,0,1.2-.3,1.2-.86s-.336-.821-1.2-.821H510.55c-.859,0-1.2.3-1.2.859,0,.522.337.822,1.2.822Z" transform="translate(-463.934 -96.112)"/>
  <path id="Path_550" data-name="Path 550" d="M558.233,105.547c-6.5-.149-14.68-.112-21.03,0V98.675c2.2.075,4.706.111,7.247.149,0-.859-.038-1.681-.076-2.54h7.845c-.075.859-.112,1.681-.112,2.54,2.166-.038,4.258-.075,6.126-.149ZM537.8,116.381c0-6.239,4.183-9.414,10.161-9.414,6.051,0,10.2,3.175,10.2,9.414v1.83c0,7.1-4.146,10.2-10.2,10.2-6.015,0-10.161-3.1-10.161-10.2Zm7.1,2.128c0,1.906,1.01,3.4,3.213,3.4,2.241,0,3.25-1.494,3.25-3.4v-1.829c0-1.943-1.046-3.4-3.25-3.4s-3.213,1.457-3.213,3.4Zm15.465,9.862c.224-5.976.224-26.783,0-31.75h7.1c-.075,2.017-.148,6.537-.148,11.654a34.948,34.948,0,0,0,4.257-.261v7.77c-.859-.076-2.539-.15-4.257-.188,0,5.341.036,10.31.148,12.775Z" transform="translate(-465.45 -96.097)"/>
  <path id="Path_551" data-name="Path 551" d="M607.531,116.581c-6.5-.148-26.148-.112-32.5,0v-6.238c6.35.149,26.334.224,32.5,0Zm-1.457,11.991c-10.421-.075-17.781-.075-29.173,0,.075-3.026.075-7.658,0-10.31h8.143c-.075.823-.075,3.624-.075,4.072,8.554,0,13.261,0,21.105-.075Zm-.6-20.358c-10.422-.075-17.107-.075-28.5,0,.075-3.026.075-8.927,0-11.579h8.068c-.075,1.2-.075,4.258-.075,5.453,8.554,0,12.663,0,20.507-.075Z" transform="translate(-467.048 -96.112)"/>
  <path id="Path_552" data-name="Path 552" d="M643.92,128.385c.037-1.569.112-4.071.112-7.1a55.953,55.953,0,0,1-21.03,7.1c.075-10.5.075-23.2,0-31.378,4.333.113,12.14.113,16.922,0v7.023c-2.465-.075-6.426-.075-9.713-.075-.037,4.781-.037,10.5,0,15.277a37.837,37.837,0,0,0,13.859-5.117c.037-7.209-.037-14.754-.149-17.481h7.1c-.187,4.968-.224,25.737,0,31.75Z" transform="translate(-469.075 -96.112)"/>
  <path id="Path_553" data-name="Path 553" d="M653.812,122.3c7.284-4.894,9.338-11.879,9.824-18.453-2.5,0-4.968.037-7.321.075v-7.1c6.35.149,13.783.223,19.946,0v7.1c-1.9-.037-3.81-.075-5.752-.075-.037.71-.112,1.382-.187,2.092.037,7.284,2.5,11.8,7.509,15.39.075-8.592.037-20.993-.113-24.691h7.1c-.076,2.017-.15,6.537-.15,11.654a34.987,34.987,0,0,0,4.259-.261v7.77c-.859-.076-2.541-.15-4.259-.188,0,5.341.037,10.31.15,12.775h-7.1c.038-1.419.113-3.623.113-6.239l-3.811,5.716a24,24,0,0,1-7.284-9.526,26.67,26.67,0,0,1-8.331,9.675Z" transform="translate(-470.376 -96.112)"/>
  <path id="Path_554" data-name="Path 554" d="M693.2,106.294c0-7.06,4.334-10.01,9.563-10.01s9.6,2.951,9.6,10.01v12.289c0,7.061-4.37,10.011-9.6,10.011s-9.563-2.951-9.563-10.011Zm6.948,12.289c0,2.466,1.233,3.1,2.69,3.1s2.726-.635,2.726-3.1V106.406c0-2.465-1.27-3.1-2.726-3.1s-2.69.635-2.69,3.1Zm15.465,9.787c.224-5.976.224-26.783,0-31.75h7.1c-.188,4.968-.225,25.737,0,31.75Z" transform="translate(-472.04 -96.097)"/>
  <path id="Path_555" data-name="Path 555" d="M749.186,128.385c.037-1.569.111-4.183.111-7.246-5.08,3.1-15.8,6.35-21.776,7.246.112-9.6.112-22.151,0-31.378h7.395c-.111,6.948-.111,15.315,0,22.3,4-.6,11.58-3.1,14.419-4.969v-3.362c-2.092,0-4.109.037-6.088.112v-8.143c1.868.075,4,.112,6.051.112,0-2.839-.074-5.155-.111-6.425h7.1c-.188,4.968-.225,25.737,0,31.75Z" transform="translate(-473.49 -96.112)"/>
  <path id="Path_556" data-name="Path 556" d="M769.2,122.532v5.827c0,4.408-1.9,6.462-4.481,7.844l-3.325-3.511c1.2-.448,2.616-1.718,2.578-3.175h-2.914c.075-2.166.075-4.818,0-6.985C763.712,122.606,766.663,122.606,769.2,122.532Z" transform="translate(-474.907 -97.206)"/>
  <path id="Path_557" data-name="Path 557" d="M783.6,110.119c11.878-2.577,13.671-9.973,14.12-13.484l7.357.56a19.594,19.594,0,0,1-1.793,7.1c3.139,3.026,7.4,4.445,10.945,5.229l-2.615,6.8a26.242,26.242,0,0,1-11.954-6.761,25.859,25.859,0,0,1-12.513,6.985Zm30.742,18.266c-6.5-.149-23.906-.112-30.257,0v-6.649c6.351.149,24.094.224,30.257,0Z" transform="translate(-475.86 -96.112)"/>
  <path id="Path_558" data-name="Path 558" d="M817.141,110.119c11.878-2.577,13.671-9.973,14.119-13.484l7.358.56a19.613,19.613,0,0,1-1.793,7.1c3.139,3.026,7.4,4.445,10.945,5.229l-2.615,6.8a26.243,26.243,0,0,1-11.954-6.761,25.859,25.859,0,0,1-12.513,6.985Zm30.742,18.266c-6.5-.149-23.906-.112-30.257,0v-6.649c6.351.149,24.094.224,30.257,0Z" transform="translate(-477.277 -96.112)"/>
  <path id="Path_559" data-name="Path 559" d="M880.936,128.385c-6.5-.149-23.906-.112-30.256,0v-6.649c2.5.075,6.873.111,11.542.149,0-1.121-.037-2.241-.075-3.288h7.433c-.074,1.084-.074,2.167-.111,3.288,4.669,0,9-.038,11.467-.149Zm-1.494-11.207q-13.447-.168-26.895,0c.112-4.37.112-8.4,0-12.775h18.9v-1.793h-18.9V96.635c8.965.111,17.78.111,26.745,0-.113,4.333-.113,8.292,0,12.625h-18.9V111.2h19.051Z" transform="translate(-478.693 -96.112)"/>
  <path id="Path_560" data-name="Path 560" d="M894.359,106.2c.971.075,2.316.149,3.848.187-.149-.784-.3-1.644-.412-2.577l6.874-.411c0,1.046-.037,2.054.037,3.026l3.25-.075a19.33,19.33,0,0,0,.261-2.988l6.873.411a18.008,18.008,0,0,1-.448,2.054l1.868-.336.672,4.557c-7.471,1.644-15.987,1.681-22.075,1.9Zm22.039-3.548c-6.5-.149-13.783-.112-20.133,0v-5.79c6.35.148,13.97.224,20.133,0ZM897.87,112.4c5.79.112,22.674.112,29.7,0-.074,3.026-.074,6.8,0,9.825H906.013v1.27h21.928v4.968c-9-.075-21.964-.075-30.22,0,.112-3.324.112-6.425,0-10.2,5.865.075,14.831.075,21.853.075V117.1h-21.7Zm22.636-1.083c0-.523.037-1.046.037-1.569-.97,0-1.942.037-2.8.075v-5.229l2.876.112v-1.27c-1.008,0-1.98.037-2.876.075V98.278l2.8.112c0-.6-.037-1.158-.037-1.756h7.1c-.111,4.594-.148,9.413,0,14.679Z" transform="translate(-480.539 -96.112)"/>
  <path id="Path_561" data-name="Path 561" d="M953.077,102.335l2.317.075c0-2.54-.075-4.594-.112-5.79h7.1c-.187,4.968-.224,25.737,0,31.75h-7.1c.037-1.756.112-4.744.149-8.217-.747,0-1.457.037-2.167.037a17.008,17.008,0,0,0,1.756,1.382l-4.183,6.275a24.683,24.683,0,0,1-7.21-9.563,26.647,26.647,0,0,1-8.4,9.713l-4.594-5.715a21.836,21.836,0,0,0,9.713-16.137c-2.466,0-4.894.037-7.21.075v-7.1c2.092.075,4.3.112,6.574.112,0-.971-.037-1.98-.075-2.951h7.845a26.308,26.308,0,0,0-.112,2.988c1.98-.037,3.884-.075,5.714-.149Zm-.746,7.433V106.22c-1.718-.037-3.437-.075-5.193-.075.112,5.976,1.905,10.048,5.341,13.335v-7.022l2.952.112v-2.876C954.385,109.693,953.339,109.731,952.331,109.768Z" transform="translate(-482.071 -96.097)"/>
  <path id="Path_562" data-name="Path 562" d="M996.765,128.46c-6.5-.149-23.906-.112-30.257,0v-6.649c2.5.075,6.874.112,11.58.149l-.113-4.521h7.4c-.075,1.383-.112,2.989-.112,4.521,4.706,0,9.039-.037,11.505-.149Zm-28.576-12.551c.112-5.976.112-13.372,0-19.274h7.358v3.287c3.736.075,8.517.075,12.252,0V96.635h7.322c-.112,5.939-.112,13.335,0,19.274C986.155,115.8,976.033,115.8,968.189,115.909Zm7.358-6.537c3.736.075,8.517.075,12.252,0V106.2c-3.772-.075-8.553-.075-12.252,0Z" transform="translate(-483.587 -96.112)"/>
  <path id="Path_563" data-name="Path 563" d="M1000.828,106.294c0-7.06,4.334-10.01,9.563-10.01s9.6,2.951,9.6,10.01v12.289c0,7.061-4.371,10.011-9.6,10.011s-9.563-2.951-9.563-10.011Zm6.948,12.289c0,2.466,1.233,3.1,2.69,3.1s2.726-.635,2.726-3.1V106.406c0-2.465-1.27-3.1-2.726-3.1s-2.69.635-2.69,3.1Zm15.465,9.787c.224-5.976.224-26.783,0-31.75h7.1c-.187,4.968-.224,25.737,0,31.75Z" transform="translate(-485.037 -96.097)"/>
  <path id="Path_564" data-name="Path 564" d="M1055.318,128.385c.037-1.531.112-3.959.112-6.874-5.155,3.363-14.829,6.575-20.283,6.874.076-10.5.076-23.2,0-31.378,4.334.113,12.514.113,17.3,0v6.762c-2.465-.075-6.8-.075-10.085-.075-.037,4.781-.037,11.094,0,15.876a37.886,37.886,0,0,0,13.111-4.633c.037-7.47-.037-15.464-.15-18.3h7.1c-.075,2.017-.149,6.537-.149,11.654a34.754,34.754,0,0,0,4.22-.261v7.77c-.858-.076-2.5-.15-4.22-.188,0,5.341.036,10.31.149,12.775Z" transform="translate(-486.487 -96.112)"/>
</svg>
