<svg xmlns="http://www.w3.org/2000/svg" width="58.584" height="25.248" viewBox="0 0 58.584 25.248">
  <path id="Path_777" data-name="Path 777" d="M7.1.336a10.044,10.044,0,0,0,3.1-.5L9.528-3.24A4.8,4.8,0,0,1,8.28-3C7.272-3,6.552-3.6,6.552-5.112V-10.32H9.768v-3.336H6.552v-3.6H3l-.48,3.6-2.088.168v3.168H2.28v5.256C2.28-1.824,3.672.336,7.1.336Zm10.7,0c3.456,0,6.672-2.64,6.672-7.152,0-4.536-3.216-7.176-6.672-7.176-3.48,0-6.7,2.64-6.7,7.176C11.112-2.3,14.328.336,17.808.336Zm0-3.456c-1.608,0-2.328-1.44-2.328-3.7,0-2.28.72-3.72,2.328-3.72,1.584,0,2.3,1.44,2.3,3.72C20.112-4.56,19.392-3.12,17.808-3.12Zm9.36,8.088h4.248V1.056L31.3-1.08A4.483,4.483,0,0,0,34.464.336c2.928,0,5.736-2.688,5.736-7.392,0-4.2-2.064-6.936-5.328-6.936a5.935,5.935,0,0,0-3.84,1.656h-.1l-.288-1.32h-3.48Zm6.288-8.136a2.984,2.984,0,0,1-2.04-.792v-5.4A2.922,2.922,0,0,1,33.6-10.512c1.512,0,2.208,1.128,2.208,3.528C35.808-4.248,34.752-3.168,33.456-3.168ZM51.792,1.92h2.88V-14.16a13.687,13.687,0,0,0,2.952,2.76l1.392-2.568a28.829,28.829,0,0,1-5.784-6.312,28.829,28.829,0,0,1-5.784,6.312L48.84-11.4a13.687,13.687,0,0,0,2.952-2.76Z" transform="translate(-0.432 20.28)" fill="#fff"/>
</svg>
