<svg id="daejeonsi_typelogo_orange" xmlns="http://www.w3.org/2000/svg" width="240" height="64.642" viewBox="0 0 240 64.642">
  <path id="Path_541" data-name="Path 541" d="M272.813,332.7V311.891l12.408-6.76h11.56V292.12h-39.7v13.011h17.683l-17.683,6.76v25.365l8.365,8.76,31.934-.03v-13.3Z" transform="translate(-257.08 -289.765)" fill="#f39200"/>
  <path id="Path_542" data-name="Path 542" d="M379.62,286.537v23.154H373.9V286.537H361.469v64.642l12.431-1.232V322.892h5.72v28.287l12.431-1.232v-63.41Z" transform="translate(-317.432 -286.537)" fill="#f39200"/>
  <path id="Path_543" data-name="Path 543" d="M580.257,286.537v15.327h-7.066v13.309h7.066v17.747l15.665-1.2V286.537Z" transform="translate(-439.838 -286.537)" fill="#f39200"/>
  <path id="Path_544" data-name="Path 544" d="M479.056,398.557v-8.863H463.391v15.4l13.053,5.687h56V398.557Z" transform="translate(-376.358 -346.177)" fill="#f39200"/>
  <path id="Path_545" data-name="Path 545" d="M788.864,351.179V286.537h15.665v63.446Z" transform="translate(-564.529 -286.537)" fill="#f39200"/>
  <path id="Path_546" data-name="Path 546" d="M505.731,328.4l-7.6-19.578H485.74l6.83-4.861h12.051V292.12H461.89v11.84h18.73l-10.756,4.861-10.1,19.578H475.6l7.592-14.662,6.627,14.662Z" transform="translate(-374.258 -289.765)" fill="#f39200"/>
  <path id="Path_547" data-name="Path 547" d="M688.115,350.305h15.979l-10.45-38.788H677.078l-4.884,6.5,6.463-27.76H662.1l-14,60.046h16.577l4.673-20.073,9.466-12.6Z" transform="translate(-483.147 -288.689)" fill="#f39200"/>
</svg>
